<svg width="34" height="34" viewBox="0 0 34 34" fill="none" xmlns="http://www.w3.org/2000/svg">
<path d="M12.7497 26.9169C5.66634 29.0419 5.66634 23.3752 2.83301 22.6669M22.6663 31.1669V25.6844C22.7195 25.0088 22.6282 24.3298 22.3986 23.6922C22.169 23.0547 21.8063 22.4734 21.3347 21.9869C25.783 21.491 30.458 19.8052 30.458 12.0702C30.4576 10.0923 29.6968 8.19023 28.333 6.7577C28.9788 5.02725 28.9331 3.11452 28.2055 1.41686C28.2055 1.41686 26.5338 0.92103 22.6663 3.51353C19.4194 2.63353 15.9967 2.63353 12.7497 3.51353C8.88217 0.92103 7.21051 1.41686 7.21051 1.41686C6.48287 3.11452 6.43721 5.02725 7.08301 6.7577C5.70902 8.20085 4.94741 10.1201 4.95801 12.1127C4.95801 19.791 9.63301 21.4769 14.0813 22.0294C13.6153 22.511 13.2558 23.0854 13.0264 23.7151C12.7969 24.3448 12.7027 25.0158 12.7497 25.6844V31.1669" stroke="#882A3C" stroke-width="2" stroke-linecap="round" stroke-linejoin="round"/>
</svg>
