<svg width="34" height="34" viewBox="0 0 34 34" fill="none" xmlns="http://www.w3.org/2000/svg">
<path d="M24.083 2.8335H9.91634C6.00432 2.8335 2.83301 6.00481 2.83301 9.91683V24.0835C2.83301 27.9955 6.00432 31.1668 9.91634 31.1668H24.083C27.995 31.1668 31.1663 27.9955 31.1663 24.0835V9.91683C31.1663 6.00481 27.995 2.8335 24.083 2.8335Z" stroke="#882A3C" stroke-width="2" stroke-linecap="round" stroke-linejoin="round"/>
<path d="M22.6666 16.1074C22.8414 17.2865 22.64 18.4906 22.0911 19.5485C21.5421 20.6065 20.6735 21.4644 19.6089 22.0003C18.5442 22.5362 17.3377 22.7227 16.1609 22.5333C14.9842 22.344 13.8971 21.7884 13.0543 20.9456C12.2115 20.1028 11.6559 19.0157 11.4665 17.8389C11.2771 16.6621 11.4637 15.4556 11.9995 14.391C12.5354 13.3263 13.3933 12.4577 14.4513 11.9088C15.5093 11.3598 16.7134 11.1584 17.8924 11.3333C19.0951 11.5116 20.2084 12.072 21.0681 12.9317C21.9278 13.7914 22.4882 14.9048 22.6666 16.1074Z" stroke="#882A3C" stroke-width="2" stroke-linecap="round" stroke-linejoin="round"/>
<path d="M24.792 9.2085H24.8062" stroke="#882A3C" stroke-width="2" stroke-linecap="round" stroke-linejoin="round"/>
</svg>
