<svg width="34" height="34" viewBox="0 0 34 34" fill="none" xmlns="http://www.w3.org/2000/svg">
<path d="M22.667 11.3335C24.9213 11.3335 27.0833 12.229 28.6774 13.8231C30.2715 15.4171 31.167 17.5792 31.167 19.8335V29.7502H25.5003V19.8335C25.5003 19.082 25.2018 18.3614 24.6705 17.83C24.1391 17.2987 23.4184 17.0002 22.667 17.0002C21.9155 17.0002 21.1949 17.2987 20.6635 17.83C20.1322 18.3614 19.8337 19.082 19.8337 19.8335V29.7502H14.167V19.8335C14.167 17.5792 15.0625 15.4171 16.6566 13.8231C18.2506 12.229 20.4127 11.3335 22.667 11.3335Z" stroke="#882A3C" stroke-width="2" stroke-linecap="round" stroke-linejoin="round"/>
<path d="M8.49967 12.75H2.83301V29.75H8.49967V12.75Z" stroke="#882A3C" stroke-width="2" stroke-linecap="round" stroke-linejoin="round"/>
<path d="M5.66634 8.50016C7.23115 8.50016 8.49967 7.23164 8.49967 5.66683C8.49967 4.10202 7.23115 2.8335 5.66634 2.8335C4.10153 2.8335 2.83301 4.10202 2.83301 5.66683C2.83301 7.23164 4.10153 8.50016 5.66634 8.50016Z" stroke="#882A3C" stroke-width="2" stroke-linecap="round" stroke-linejoin="round"/>
</svg>
